HIERARCHY
ROOT Hips
{
	OFFSET -0.179506 -22.333345 2.821913
	CHANNELS 6 Xposition Yposition Zposition Zrotation Yrotation Xrotation 
	JOINT LeftUpLeg
	{
		OFFSET 6.951974 -9.140623 -0.681533
		CHANNELS 3 Zrotation Yrotation Xrotation
		JOINT LeftLeg
		{
			OFFSET 3.427654 -37.519855 -0.449580
			CHANNELS 3 Zrotation Yrotation Xrotation
			JOINT LeftFoot
			{
				OFFSET -1.359570 -39.796059 -4.369333
				CHANNELS 3 Zrotation Yrotation Xrotation
				JOINT LeftToe
				{
					OFFSET 2.635814 -5.579078 11.928840
					CHANNELS 3 Zrotation Yrotation Xrotation
					End Site
					{
						OFFSET 0.000000 0.000000 0.000000
					}
				}
			}
		}
	}
	JOINT RightUpLeg
	{
		OFFSET -6.767048 -9.052170 -0.431982
		CHANNELS 3 Zrotation Yrotation Xrotation
		JOINT RightLeg
		{
			OFFSET -3.829005 -38.256897 -0.885003
			CHANNELS 3 Zrotation Yrotation Xrotation
			JOINT RightFoot
			{
				OFFSET 1.577377 -39.841461 -4.231180
				CHANNELS 3 Zrotation Yrotation Xrotation
				JOINT RightToe
				{
					OFFSET -2.537174 -4.814398 12.334795
					CHANNELS 3 Zrotation Yrotation Xrotation
					End Site
					{
						OFFSET 0.000000 0.000000 0.000000
					}
				}
			}
		}
	}
	JOINT Spine
	{
		OFFSET -0.253288 10.896323 -2.669631
		CHANNELS 3 Zrotation Yrotation Xrotation
		JOINT Spine1
		{
			OFFSET 0.548704 13.518043 0.109247
			CHANNELS 3 Zrotation Yrotation Xrotation
			JOINT Spine2
			{
				OFFSET 0.145701 5.292222 2.542457
				CHANNELS 3 Zrotation Yrotation Xrotation
				JOINT Neck
				{
					OFFSET -0.277840 21.387037 -4.285703
					CHANNELS 3 Zrotation Yrotation Xrotation
					JOINT Head
					{
						OFFSET 0.515184 6.496960 5.134897
						CHANNELS 3 Zrotation Yrotation Xrotation
						End Site
						{
							OFFSET 0.000000 0.000000 0.000000
						}
					}
				}
				JOINT LeftShoulder
				{
					OFFSET 7.884473 12.174932 -3.408961
					CHANNELS 3 Zrotation Yrotation Xrotation
					JOINT LeftArm
					{
						OFFSET 9.097692 3.046888 -0.886815
						CHANNELS 3 Zrotation Yrotation Xrotation
						JOINT LeftForeArm
						{
							OFFSET 25.961220 -1.277207 -2.745643
							CHANNELS 3 Zrotation Yrotation Xrotation
							JOINT LeftHand
							{
								OFFSET 24.923361 0.898606 -0.117091
								CHANNELS 3 Zrotation Yrotation Xrotation
								End Site
								{
									OFFSET 0.000000 0.000000 0.000000
								}
							}
						}
					}
				}
				JOINT RightShoulder
				{
					OFFSET -8.175920 11.883285 -3.861528
					CHANNELS 3 Zrotation Yrotation Xrotation
					JOINT RightArm
					{
						OFFSET -9.601238 3.255117 -0.914307
						CHANNELS 3 Zrotation Yrotation Xrotation
						JOINT RightForeArm
						{
							OFFSET -25.374195 -1.332924 -2.140099
							CHANNELS 3 Zrotation Yrotation Xrotation
							JOINT RightHand
							{
								OFFSET -25.529810 0.777228 -0.555919
								CHANNELS 3 Zrotation Yrotation Xrotation
								End Site
								{
									OFFSET 0.000000 0.000000 0.000000
								}
							}
						}
					}
				}
			}
		}
	}
}
MOTION
Frames: 12
Frame Time: 0.033333
-16.764349 -283.201416 86.600830 -169.788162 -0.690904 100.235969 0.893438 -0.919572 8.670433 -13.587853 -30.070789 25.366716 5.673806 14.305142 -32.492594 nan nan nan -6.095063 5.303106 -49.581508 -1.670310 -10.787926 93.427360 5.421833 -9.504190 -19.695435 nan nan nan 0.038763 -12.108887 26.208122 3.510066 -4.116193 -9.512786 3.327584 -6.247233 1.378874 -1.616654 3.393560 -19.756801 10.363014 4.693625 -15.407488 -2.088369 -17.842910 -5.934778 -33.660840 -25.200423 7.555148 152.297126 -74.012045 -121.394225 1.283146 -9.730425 -9.058684 -0.003654 -4.000891 -1.268377 50.225248 -34.126165 6.253560 19.203737 59.768988 50.272093 36.222497 5.993524 -10.674656 
-16.788422 -280.813477 86.984062 -169.742086 -0.055996 100.596072 1.436089 -0.803290 11.227334 -11.722821 -31.634003 22.022706 4.206039 15.071639 -29.817041 nan nan nan -6.884817 5.547329 -52.244592 -1.116312 -11.777430 90.847619 5.301725 -9.015731 -20.160285 nan nan nan 0.866310 -13.588804 25.261042 3.673861 -4.171280 -9.435792 3.230712 -6.309411 1.649648 -2.054684 4.475665 -19.661312 9.794745 5.137853 -15.451909 -0.814462 -17.110725 -6.232461 -32.430522 -25.290935 6.990271 152.360732 -73.436061 -121.470269 1.310703 -10.624824 -9.856342 -0.889862 -4.235317 -0.553050 49.088552 -34.272482 6.409132 22.103858 59.548241 53.057581 35.774279 7.199718 -12.098722 
-16.893288 -278.379150 87.458145 -169.883069 0.859647 100.801542 2.125618 -0.630380 13.874314 -9.530959 -32.593090 18.643825 2.969166 15.986970 -26.717201 nan nan nan -7.238364 5.754862 -54.401415 -0.596267 -12.654119 87.660398 5.078110 -9.400743 -19.452066 nan nan nan 1.976661 -15.019885 24.531177 3.819839 -3.968088 -8.992968 3.263447 -6.367461 1.460962 -2.545882 5.027056 -19.958821 9.354305 5.883759 -14.934623 0.254390 -16.529341 -6.231735 -31.644311 -25.097139 6.496664 152.406528 -72.630513 -121.767149 0.974936 -11.405376 -11.038539 -1.787952 -4.351099 0.084575 47.878077 -34.368884 6.805541 24.336799 59.469161 54.933274 35.260787 7.916301 -12.925108 
-17.092323 -275.900604 88.002754 -170.314687 2.068883 101.119033 2.873477 -0.268637 16.373499 -6.903664 -32.891699 15.084753 1.350555 16.708264 -23.403065 nan nan nan -7.354499 6.175066 -56.228807 0.161046 -13.275801 84.003065 5.323033 -9.192243 -18.638380 nan nan nan 3.384146 -16.597093 23.535610 3.974298 -3.626043 -7.991877 3.358069 -6.152430 0.818527 -3.263007 5.389663 -19.898770 8.799981 6.840596 -14.795068 0.914547 -16.074074 -6.085333 -31.099958 -24.500118 6.232981 152.479253 -71.701394 -122.125485 0.957824 -11.630748 -11.153346 -2.548435 -4.090539 0.836130 46.606834 -34.375163 6.984076 26.140198 59.516088 55.958668 33.870707 8.164874 -12.998526 
-17.113163 -273.390656 88.464783 -170.729303 2.754980 101.636429 3.246497 -0.084346 18.299979 -4.699334 -32.716323 11.979515 -0.013303 17.015483 -19.574744 nan nan nan -7.852775 6.544307 -58.104497 0.736261 -13.887825 80.191509 5.538387 -8.711603 -17.719414 nan nan nan 4.114080 -17.500973 22.111739 4.261016 -3.745514 -6.895268 3.586687 -6.121001 0.255463 -3.836463 5.986060 -19.520504 8.271642 7.584806 -14.913212 1.433280 -15.565858 -5.870792 -30.652751 -23.774658 6.137880 152.971028 -70.909597 -122.973585 1.148571 -11.284769 -10.412209 -2.929308 -3.717560 1.785632 45.705698 -34.155499 6.970192 26.878949 59.502925 55.867936 33.055121 8.192784 -12.633714 
-17.147390 -270.867432 88.936447 -171.104931 3.478098 102.098568 3.694734 0.349551 20.007770 -2.419747 -32.109627 9.043318 -1.316552 16.767275 -15.515624 nan nan nan -8.167498 6.867926 -59.555431 1.078260 -14.460857 75.943762 5.644865 -8.296366 -16.173303 nan nan nan 4.902272 -18.294489 21.022133 4.550957 -3.960418 -6.028605 3.905384 -5.949049 -0.561102 -4.436710 6.203035 -18.501799 7.846215 8.660957 -15.355665 1.683959 -15.356719 -5.293157 -30.471365 -22.927949 5.883012 153.900130 -70.304509 -123.927719 0.415946 -10.834579 -9.172328 -3.227697 -3.175987 2.998073 45.012582 -33.943418 6.389334 27.675022 59.344178 55.888278 34.137744 8.129898 -12.678847 
-17.145035 -268.350677 89.373711 -171.616864 4.319715 102.318950 4.160711 0.985946 21.860109 -0.122664 -31.435937 6.282640 -2.571091 16.418047 -11.192677 nan nan nan -8.163706 7.409187 -60.431555 1.370559 -14.933294 71.412751 5.795997 -7.666569 -14.546272 nan nan nan 5.574957 -19.077814 20.356657 4.847542 -3.993990 -4.600008 4.439690 -5.852849 -1.839076 -5.283190 6.383471 -17.846710 7.466356 9.737202 -15.883340 1.991661 -15.014253 -4.745151 -30.560109 -22.117210 5.563502 154.480090 -69.677784 -124.616431 -0.956942 -10.799207 -8.739132 -3.836401 -2.516553 4.186881 44.517216 -33.423105 5.754869 28.814828 59.170135 56.373609 35.143564 8.292755 -13.060761 
-17.122824 -265.834991 89.769691 -172.345191 5.096189 102.641634 4.138704 1.272295 23.451294 1.873211 -30.623035 3.887286 -3.087168 16.375317 -6.569671 nan nan nan -8.152663 8.176492 -61.215365 1.724518 -15.237084 66.669019 5.989501 -7.058464 -12.964459 nan nan nan 6.007448 -19.780824 19.822531 5.077528 -3.826962 -3.582185 4.981387 -5.561366 -2.922011 -5.946689 6.299951 -16.755880 7.316283 11.082312 -16.750000 2.327013 -14.809768 -4.083672 -30.925331 -21.531390 5.683933 154.136414 -69.162031 -124.783341 -2.162527 -10.986853 -8.559277 -4.432836 -1.713888 5.224111 44.186935 -33.020266 5.404522 29.407430 58.750522 56.245420 36.601805 8.477663 -13.142670 
-17.110830 -263.324249 90.114052 -173.158778 5.862211 102.812248 4.037014 1.494887 24.905537 3.432951 -29.058706 1.930624 -3.423276 16.879764 -2.776497 nan nan nan -8.026816 9.184203 -61.618349 2.274946 -15.194265 61.764564 6.343522 -6.590233 -11.615269 nan nan nan 6.268350 -20.465652 19.622868 5.327388 -3.610120 -2.700743 5.532232 -5.117776 -3.922220 -6.521241 5.912874 -15.504832 7.135906 12.612400 -17.758839 2.589725 -14.583823 -3.453716 -31.578011 -20.942112 6.055175 154.191447 -68.661159 -125.256548 -2.667057 -11.211639 -8.208732 -5.010964 -0.909013 6.040367 44.007324 -32.589119 5.210390 29.341775 58.345109 55.482028 38.684347 8.296523 -12.983055 
-17.116945 -260.802216 90.413094 -174.030026 6.576479 102.812572 3.948072 1.937877 26.362931 4.677496 -27.287683 0.243086 -3.148593 16.900825 1.500179 nan nan nan -7.633596 10.068889 -61.583706 2.978029 -14.741575 56.898489 6.639123 -6.141511 -10.368370 nan nan nan 6.360348 -20.913959 19.467725 5.675463 -3.359227 -1.766826 6.008114 -4.758796 -4.758856 -7.079763 5.761642 -14.273321 6.790124 13.821670 -18.947776 2.686130 -14.331920 -2.772993 -32.272782 -20.840783 6.584779 154.262474 -68.398797 -125.710675 -2.652977 -10.851164 -7.820121 -5.091293 -0.496719 6.894900 43.380083 -31.670198 5.501838 28.745094 58.283327 54.294694 39.311739 7.780284 -12.404931 
-17.150932 -258.286530 90.666046 -174.888637 7.173591 102.668417 3.771502 2.583101 27.306597 5.294544 -25.414943 -0.124738 -2.500060 16.495375 5.633438 nan nan nan -7.051826 10.661474 -61.145572 3.815248 -13.965011 52.102156 6.756628 -5.620678 -9.230237 nan nan nan 6.489174 -21.080848 19.407665 5.970794 -3.220132 -0.994559 6.314557 -4.478245 -5.444117 -7.553769 5.535972 -13.125619 6.542612 14.811973 -20.031517 2.504910 -14.134648 -2.138932 -32.604707 -21.039243 6.980521 154.341600 -68.461765 -125.984939 -2.576250 -10.381736 -7.382305 -4.708615 -0.248814 7.653432 42.440705 -30.644657 5.912528 27.844253 58.325890 52.654453 39.592254 7.706612 -12.371562 
-17.219868 -255.774780 90.864746 -175.591467 7.712559 102.367797 3.450017 2.988485 28.020507 5.375818 -24.227367 0.938960 -2.575446 16.229742 7.160745 nan nan nan -6.403102 11.165489 -60.279266 4.587022 -13.033041 47.516815 6.985545 -4.944035 -8.505185 nan nan nan 6.742232 -21.316778 19.742655 6.151638 -3.201283 -0.555940 6.560590 -4.206701 -6.104268 -7.906571 5.513548 -12.107414 6.113291 15.666722 -20.939832 1.944404 -14.145488 -1.558994 -32.679417 -20.618943 7.290800 154.779651 -68.151615 -126.124502 -3.370756 -10.513143 -6.618713 -4.077644 0.199508 8.072713 41.232891 -29.854559 6.037149 27.671072 58.110165 51.715280 40.155390 8.066252 -12.696840 
